<svg width="18" height="18" viewBox="0 0 18 18" fill="none" xmlns="http://www.w3.org/2000/svg">
<path d="M9 1.64423C11.4231 1.64423 11.6827 1.64423 12.6346 1.73077C13.5 1.73077 14.0192 1.90385 14.2788 2.07692C14.7115 2.25 14.9712 2.42308 15.3173 2.76923C15.6635 3.11538 15.8365 3.375 16.0096 3.80769C16.0962 4.15385 16.2692 4.58654 16.3558 5.45192C16.3558 6.40385 16.4423 6.66346 16.4423 9.08654C16.4423 11.5096 16.4423 11.7692 16.3558 12.7212C16.3558 13.5865 16.1827 14.1058 16.0096 14.3654C15.8365 14.7981 15.6635 15.0577 15.3173 15.4038C14.9712 15.75 14.7115 15.9231 14.2788 16.0962C13.9327 16.1827 13.5 16.3558 12.6346 16.4423C11.7692 16.4423 11.4231 16.4423 9 16.4423C6.57692 16.4423 6.31731 16.4423 5.36538 16.3558C4.5 16.3558 3.98077 16.1827 3.72115 16.0096C3.28846 15.8365 3.02885 15.6635 2.68269 15.3173C2.33654 14.9712 2.16346 14.7115 1.99038 14.2788C1.90385 13.9327 1.73077 13.5 1.64423 12.6346C1.55769 11.6827 1.55769 11.4231 1.55769 9C1.55769 6.57692 1.55769 6.31731 1.64423 5.36538C1.64423 4.5 1.81731 3.98077 1.99038 3.72115C2.16346 3.28846 2.33654 3.02885 2.68269 2.68269C3.02885 2.33654 3.28846 2.16346 3.72115 1.99038C3.98077 1.90385 4.5 1.73077 5.36538 1.64423C6.31731 1.64423 6.57692 1.64423 9 1.64423ZM9 0C6.57692 0 6.23077 0 5.27885 0.0865385C4.32692 0.0865385 3.72115 0.259615 3.11538 0.432692C2.50962 0.692308 1.99038 1.03846 1.55769 1.55769C1.03846 1.99038 0.692308 2.50962 0.432692 3.11538C0.259615 3.72115 0.0865385 4.32692 0.0865385 5.27885C0 6.23077 0 6.57692 0 9C0 11.4231 0 11.7692 0.0865385 12.7212C0.173077 13.6731 0.259615 14.3654 0.519231 14.8846C0.778846 15.4904 1.03846 16.0096 1.55769 16.4423C2.07692 16.9615 2.59615 17.2212 3.11538 17.4808C3.72115 17.7404 4.32692 17.8269 5.27885 17.9135C6.23077 18 6.57692 18 9 18C11.4231 18 11.7692 18 12.7212 17.9135C13.6731 17.8269 14.3654 17.7404 14.8846 17.4808C15.4904 17.2212 16.0096 16.9615 16.4423 16.4423C16.9615 15.9231 17.2212 15.4038 17.4808 14.8846C17.7404 14.2788 17.8269 13.6731 17.9135 12.7212C18 11.7692 18 11.4231 18 9C18 6.57692 18 6.23077 17.9135 5.27885C17.8269 4.32692 17.7404 3.63462 17.4808 3.11538C17.2212 2.50962 16.9615 1.99038 16.4423 1.55769C15.9231 1.03846 15.4038 0.778846 14.8846 0.519231C14.2788 0.259615 13.6731 0.173077 12.7212 0.0865385C11.7692 0 11.5096 0 9 0Z" fill="#333333"/>
</svg>
