<svg width="24" height="24" viewBox="0 0 24 24" fill="none" xmlns="http://www.w3.org/2000/svg">
<path fill-rule="evenodd" clip-rule="evenodd" d="M12 4.64423C14.4231 4.64423 14.6827 4.64423 15.6346 4.73077C16.5 4.73077 17.0192 4.90385 17.2788 5.07692C17.7115 5.25 17.9712 5.42308 18.3173 5.76923C18.6635 6.11538 18.8365 6.375 19.0096 6.80769C19.0291 6.88549 19.0529 6.96765 19.0791 7.05812C19.1696 7.37018 19.2887 7.78102 19.3558 8.45192C19.3558 8.81869 19.3686 9.08268 19.3844 9.40724C19.4096 9.92506 19.4423 10.597 19.4423 12.0865C19.4423 14.5096 19.4423 14.7692 19.3558 15.7212C19.3558 16.5865 19.1827 17.1058 19.0096 17.3654C18.8365 17.7981 18.6635 18.0577 18.3173 18.4038C17.9712 18.75 17.7115 18.9231 17.2788 19.0962C17.2011 19.1156 17.1189 19.1394 17.0285 19.1656L17.0284 19.1657C16.7163 19.2561 16.3055 19.3752 15.6346 19.4423H12C9.57692 19.4423 9.31731 19.4423 8.36538 19.3558C7.5 19.3558 6.98077 19.1827 6.72115 19.0096C6.28846 18.8365 6.02885 18.6635 5.68269 18.3173C5.33654 17.9712 5.16346 17.7115 4.99038 17.2788C4.97094 17.2011 4.94712 17.1189 4.92089 17.0284L4.92089 17.0284C4.83042 16.7163 4.71132 16.3055 4.64423 15.6346C4.55769 14.6827 4.55769 14.4231 4.55769 12C4.55769 9.57692 4.55769 9.31731 4.64423 8.36538C4.64423 7.5 4.81731 6.98077 4.99038 6.72115C5.16346 6.28846 5.33654 6.02885 5.68269 5.68269C6.02885 5.33654 6.28846 5.16346 6.72115 4.99038C6.98077 4.90385 7.5 4.73077 8.36538 4.64423H12ZM12 3C9.57692 3 9.23077 3 8.27885 3.08654C7.32692 3.08654 6.72115 3.25962 6.11538 3.43269C5.50962 3.69231 4.99038 4.03846 4.55769 4.55769C4.03846 4.99038 3.69231 5.50962 3.43269 6.11538C3.25962 6.72115 3.08654 7.32692 3.08654 8.27885C3 9.23077 3 9.57692 3 12C3 14.4231 3 14.7692 3.08654 15.7212C3.17308 16.6731 3.25962 17.3654 3.51923 17.8846C3.77885 18.4904 4.03846 19.0096 4.55769 19.4423C5.07692 19.9615 5.59615 20.2212 6.11538 20.4808C6.72115 20.7404 7.32692 20.8269 8.27885 20.9135C9.23075 21 9.57691 21 11.9998 21H12H12.0002C14.4231 21 14.7693 21 15.7212 20.9135C16.6731 20.8269 17.3654 20.7404 17.8846 20.4808C18.4904 20.2212 19.0096 19.9615 19.4423 19.4423C19.9615 18.9231 20.2212 18.4038 20.4808 17.8846C20.7404 17.2788 20.8269 16.6731 20.9135 15.7212C21 14.7693 21 14.4231 21 12.0002V12V11.9998C21 9.57691 21 9.23075 20.9135 8.27885C20.8269 7.32692 20.7404 6.63462 20.4808 6.11538C20.2212 5.50962 19.9615 4.99038 19.4423 4.55769C18.9231 4.03846 18.4038 3.77885 17.8846 3.51923C17.2788 3.25962 16.6731 3.17308 15.7212 3.08654C14.7692 3 14.5096 3 12 3ZM12.0002 7.41348C9.40405 7.41348 7.32715 9.49041 7.32715 12.0866C7.32715 14.6827 9.40405 16.7596 12.0002 16.7596C14.5963 16.7596 16.6732 14.6827 16.6732 12.0866C16.6732 9.49041 14.5963 7.41348 12.0002 7.41348ZM12.0002 15.0289C10.356 15.0289 8.97136 13.6443 8.97136 12C9.0579 10.3558 10.356 9.05771 12.0002 9.05771C13.6444 9.05771 15.029 10.4423 15.029 12.0866C15.029 13.7308 13.7309 15.0289 12.0002 15.0289ZM16.8467 8.36539C17.4524 8.36539 17.9717 7.84616 17.9717 7.24039C17.9717 6.63462 17.4524 6.11539 16.8467 6.11539C16.2409 6.11539 15.7217 6.63462 15.7217 7.24039C15.7217 7.84616 16.2409 8.36539 16.8467 8.36539Z" fill="white"/>
</svg>
